[Header]
FileType HTR
DataType HTRS
FileVersion 1
NumSegments 22
NumFrames 4
DataFrameRate 24
EulerRotationOrder ZYX
CalibrationUnits mm
RotationUnits Degrees
GlobalAxisofGravity Y
BoneLengthAxis Y
ScaleFactor 1.0
[SegmentNames&Hierarchy]
reference	GLOBAL
Hips	reference
Spine	Hips
Spine1	Spine
Neck	Spine1
Head	Neck
LeftShoulder	Spine1
LeftArm	LeftShoulder
LeftForeArm	LeftArm
LeftHand	LeftForeArm
RightShoulder	Spine1
RightArm	RightShoulder
RightForeArm	RightArm
RightHand	RightForeArm
LeftUpLeg	Hips
LeftLeg	LeftUpLeg
LeftFoot	LeftLeg
LeftToeBase	LeftFoot
RightUpLeg	Hips
RightLeg	RightUpLeg
RightFoot	RightLeg
RightToeBase	RightFoot
[BasePosition]
reference	0	0	0	0	0	0	1
Hips	0	0	0	0	0	0	1
Spine	0	0	0	0	-0	90	1
Spine1	0	0	0	0	0	0	1
Neck	0	0	0	-7.352430803	-7.352430803	90	1
Head	0	0	0	0	-0	90	1
LeftShoulder	0	0	0	0	0	0	1
LeftArm	0	0	0	0	0	0	1
LeftForeArm	0	0	0	0	0	0	1
LeftHand	0	0	0	0	0	0	1
RightShoulder	0	0	0	0	-0	180	1
RightArm	0	0	0	0	-0	180	1
RightForeArm	0	0	0	0	-0	180	1
RightHand	0	0	0	0	-0	180	1
LeftUpLeg	0	0	0	0	-0	-90	1
LeftLeg	0	0	0	0	-0	-90	1
LeftFoot	0	0	0	66.57150701	-66.57150701	-90	1
LeftToeBase	0	0	0	0	-90	0	1
RightUpLeg	0	0	0	0	-0	-90	1
RightLeg	0	0	0	0	-0	-90	1
RightFoot	0	0	0	66.57150701	-66.57150701	-90	1
RightToeBase	0	0	0	0	-90	0	1
[reference]
20	0	0	0	0	-0	0	1.0
21	0	0	0	0	-0	0	1.0
22	0	0	0	0	-0	0	1.0
23	0	0	0	0	-0	0	1.0
[Hips]
20	1.488080025	8.572739601	0.8670573831	0.03620642424	-98.49565125	1.204955101	1.0
21	1.488080025	8.572739601	0.871360898	-0.001035336987	-98.49769592	1.296509385	1.0
22	1.488080025	8.572739601	0.8757014275	0.05165576935	-98.46105957	1.288053513	1.0
23	1.488080025	8.572739601	0.880048275	0.2136275619	-98.40039063	1.134720325	1.0
[Spine]
20	0	0.7478299737	0	-9.996869087	-0.4043725431	-89.4981308	1.0
21	0	0.7478299737	0	-10.01748085	-0.4366621077	-89.49441528	1.0
22	0	0.7478299737	0	-10.0051384	-0.5029569268	-89.48777771	1.0
23	0	0.7478299737	0	-9.969822884	-0.5663445592	-89.49963379	1.0
[Spine1]
20	0	2.049309969	0	8.351799011	-0.07549845427	-1.156340599	1.0
21	0	2.049309969	0	8.328671455	-0.07603983581	-1.188088775	1.0
22	0	2.049309969	0	8.301076889	-0.09482397139	-1.226983786	1.0
23	0	2.049309969	0	8.309336662	-0.1173371673	-1.229242563	1.0
[Neck]
20	0	2.231709957	0	0.158020243	10.16938114	-86.52716064	1.0
21	0	2.231709957	0	0.2573916614	10.28185654	-86.73439026	1.0
22	0	2.231709957	0	0.2292041928	10.28377342	-86.73751068	1.0
23	0	2.231709957	0	0.2960631549	10.28076267	-86.83789825	1.0
[Head]
20	0	1.413589954	0.1823999882	-14.43179989	3.254123211	-92.06813049	1.0
21	0	1.413589954	0.1823999882	-14.54979801	3.148247242	-91.64360046	1.0
22	0	1.413589954	0.1823999882	-14.52779198	3.147857666	-91.69724274	1.0
23	0	1.413589954	0.1823999882	-14.78006172	3.135624647	-91.64459991	1.0
[LeftShoulder]
20	0.3649300039	1.825889945	-0.04271000251	-11.71443176	-8.53153801	4.140762329	1.0
21	0.3649300039	1.825889945	-0.04271000251	-11.67697716	-8.540023804	4.095081329	1.0
22	0.3649300039	1.825889945	-0.04271000251	-11.67504501	-8.523525238	4.088846684	1.0
23	0.3649300039	1.825889945	-0.04271000251	-11.71996975	-8.547692299	4.021867275	1.0
[LeftArm]
20	1.24003005	0	0	40.93531036	9.036432266	-81.13734436	1.0
21	1.24003005	0	0	41.1034317	8.82218647	-80.95139313	1.0
22	1.24003005	0	0	41.33058929	8.632137299	-80.89698029	1.0
23	1.24003005	0	0	41.56414413	8.511654854	-80.85600281	1.0
[LeftForeArm]
20	2.847419977	0	0	-12.18487453	-11.88799	-4.073830605	1.0
21	2.847419977	0	0	-12.44407845	-11.98560524	-3.899442673	1.0
22	2.847419977	0	0	-12.5353775	-12.06069279	-3.816945553	1.0
23	2.847419977	0	0	-12.50480652	-12.09244442	-3.740080595	1.0
[LeftHand]
20	2.258270025	0	0	-12.47706604	-4.736551285	-3.197175026	1.0
21	2.258270025	0	0	-12.72701073	-4.729630947	-3.067776203	1.0
22	2.258270025	0	0	-12.82200718	-4.811956882	-2.781557322	1.0
23	2.258270025	0	0	-12.77343845	-4.827793598	-3.030860662	1.0
[RightShoulder]
20	-0.3646599948	1.825889945	-0.04271000251	-8.792324066	7.971389771	177.9045258	1.0
21	-0.3646599948	1.825889945	-0.04271000251	-8.76611042	7.974185467	177.8950806	1.0
22	-0.3646599948	1.825889945	-0.04271000251	-8.706204414	7.859364986	177.9125671	1.0
23	-0.3646599948	1.825889945	-0.04271000251	-8.786571503	7.820574284	177.8781738	1.0
[RightArm]
20	-1.24003005	0	0	46.15368652	-5.540120602	-97.20175934	1.0
21	-1.24003005	0	0	47.51576614	-5.525661469	-97.08612061	1.0
22	-1.24003005	0	0	46.43254852	-5.197942257	-97.2786026	1.0
23	-1.24003005	0	0	48.08776855	-5.250894547	-97.08986664	1.0
[RightForeArm]
20	-2.847419977	0	0	0.8341952562	12.60919857	179.7862244	1.0
21	-2.847419977	0	0	-0.1387942433	12.55845833	178.9545441	1.0
22	-2.847419977	0	0	0.5221390128	12.72580147	179.5025635	1.0
23	-2.847419977	0	0	-0.3742237389	12.71644402	178.5990601	1.0
[RightHand]
20	-2.258270025	0	0	0.7679868937	6.666824341	178.4527588	1.0
21	-2.258270025	0	0	-0.1215926558	6.895396709	178.405838	1.0
22	-2.258270025	0	0	0.4792232215	6.805789948	178.3447113	1.0
23	-2.258270025	0	0	-0.319062233	6.917798519	178.3342438	1.0
[LeftUpLeg]
20	0.9119900465	0	0	3.447118759	-6.021141529	91.80596924	1.0
21	0.9119900465	0	0	3.416505575	-5.966547966	91.81282806	1.0
22	0.9119900465	0	0	3.379205465	-6.013828278	91.81427765	1.0
23	0.9119900465	0	0	3.331749439	-6.080433846	91.80583954	1.0
[LeftLeg]
20	0	-4.371409893	0	3.613952398	-4.474368572	87.9778595	1.0
21	0	-4.371409893	0	3.606897593	-4.503401756	87.97676849	1.0
22	0	-4.371409893	0	3.618606091	-4.473833561	87.99750519	1.0
23	0	-4.371409893	0	3.691277504	-4.49451828	88.00604248	1.0
[LeftFoot]
20	0	-3.918009996	0	-86.65869904	113.998642	-33.38547897	1.0
21	0	-3.918009996	0	-86.71536255	114.0066833	-33.42893982	1.0
22	0	-3.918009996	0	-86.79493713	114.0058823	-33.47737885	1.0
23	0	-3.918009996	0	-86.78081512	114.0209808	-33.39318466	1.0
[LeftToeBase]
20	0	-0.5927900076	1.367989898	0	0	0	1.0
21	0	-0.5927900076	1.367989898	0	0	0	1.0
22	0	-0.5927900076	1.367989898	0	0	0	1.0
23	0	-0.5927900076	1.367989898	0	0	0	1.0
[RightUpLeg]
20	-0.9119900465	0	0	6.755390644	-9.829742432	90.40234375	1.0
21	-0.9119900465	0	0	6.723502159	-9.84674263	90.4083786	1.0
22	-0.9119900465	0	0	6.692243099	-9.959594727	90.41612244	1.0
23	-0.9119900465	0	0	6.665015221	-9.936872482	90.4278717	1.0
[RightLeg]
20	0	-4.371409893	0	-1.895527363	-2.256587982	91.2984314	1.0
21	0	-4.371409893	0	-1.903787136	-2.232272863	91.30353546	1.0
22	0	-4.371409893	0	-1.88555181	-2.20977211	91.29312897	1.0
23	0	-4.371409893	0	-1.837870121	-2.228433132	91.28703308	1.0
[RightFoot]
20	0	-3.918009996	0	29.97294426	63.72237015	74.92211914	1.0
21	0	-3.918009996	0	29.97270203	63.69053268	74.92434692	1.0
22	0	-3.918009996	0	30.02272415	63.71936798	75.01596832	1.0
23	0	-3.918009996	0	29.84666443	63.671875	74.89968109	1.0
[RightToeBase]
20	0	-0.5927900076	1.367989898	0	0	0	1.0
21	0	-0.5927900076	1.367989898	0	0	0	1.0
22	0	-0.5927900076	1.367989898	0	0	0	1.0
23	0	-0.5927900076	1.367989898	0	0	0	1.0
[EndOfFile]
